<svg xmlns="http://www.w3.org/2000/svg" width="1400" height="790" viewBox="0 0 1400 790">
<defs><marker id="a" markerWidth="10" markerHeight="10" refX="6" refY="3" orient="auto"><path d="M0,0 L0,6 L7,3 z" fill="#4f46e5"/></marker></defs>
<rect width="100%" height="100%" fill="#f8fafc"/>
<text x="700.0" y="52" text-anchor="middle" font-family="Inter,Arial,sans-serif" font-size="34" font-weight="700" fill="#0f172a">Android Partition Map</text>
<rect x="510.0" y="90" width="380" height="72" rx="18" fill="#312e81"/>
<text x="700.0" y="135" text-anchor="middle" font-family="Inter,Arial,sans-serif" font-size="25" font-weight="700" fill="#fff">Physical Storage</text>
<line x1="700.0" y1="162" x2="233.33333333333334" y2="218" stroke="#4f46e5" stroke-width="3" marker-end="url(#a)"/><rect x="83.33333333333334" y="220" width="300" height="64" rx="16" fill="#e0e7ff" stroke="#818cf8"/><text x="233.33333333333334" y="260" text-anchor="middle" font-family="Inter,Arial,sans-serif" font-size="22" font-weight="700" fill="#1e1b4b">Boot Partitions</text><line x1="233.33333333333334" y1="285" x2="233.33333333333334" y2="317" stroke="#94a3b8" stroke-width="2" marker-end="url(#a)"/><rect x="98.33333333333334" y="325" width="270" height="56" rx="14" fill="#fff" stroke="#cbd5e1"/><text x="233.33333333333334" y="361" text-anchor="middle" font-family="Inter,Arial,sans-serif" font-size="18" fill="#0f172a">boot</text><line x1="233.33333333333334" y1="375" x2="233.33333333333334" y2="407" stroke="#94a3b8" stroke-width="2" marker-end="url(#a)"/><rect x="98.33333333333334" y="415" width="270" height="56" rx="14" fill="#fff" stroke="#cbd5e1"/><text x="233.33333333333334" y="451" text-anchor="middle" font-family="Inter,Arial,sans-serif" font-size="18" fill="#0f172a">recovery</text><line x1="233.33333333333334" y1="465" x2="233.33333333333334" y2="497" stroke="#94a3b8" stroke-width="2" marker-end="url(#a)"/><rect x="98.33333333333334" y="505" width="270" height="56" rx="14" fill="#fff" stroke="#cbd5e1"/><text x="233.33333333333334" y="541" text-anchor="middle" font-family="Inter,Arial,sans-serif" font-size="18" fill="#0f172a">vbmeta</text><line x1="700.0" y1="162" x2="700.0" y2="218" stroke="#4f46e5" stroke-width="3" marker-end="url(#a)"/><rect x="550.0" y="220" width="300" height="64" rx="16" fill="#e0e7ff" stroke="#818cf8"/><text x="700.0" y="260" text-anchor="middle" font-family="Inter,Arial,sans-serif" font-size="22" font-weight="700" fill="#1e1b4b">Dynamic Container</text><line x1="700.0" y1="285" x2="700.0" y2="317" stroke="#94a3b8" stroke-width="2" marker-end="url(#a)"/><rect x="565.0" y="325" width="270" height="56" rx="14" fill="#fff" stroke="#cbd5e1"/><text x="700.0" y="361" text-anchor="middle" font-family="Inter,Arial,sans-serif" font-size="18" fill="#0f172a">super.img</text><line x1="700.0" y1="375" x2="700.0" y2="407" stroke="#94a3b8" stroke-width="2" marker-end="url(#a)"/><rect x="565.0" y="415" width="270" height="56" rx="14" fill="#fff" stroke="#cbd5e1"/><text x="700.0" y="451" text-anchor="middle" font-family="Inter,Arial,sans-serif" font-size="18" fill="#0f172a">system</text><line x1="700.0" y1="465" x2="700.0" y2="497" stroke="#94a3b8" stroke-width="2" marker-end="url(#a)"/><rect x="565.0" y="505" width="270" height="56" rx="14" fill="#fff" stroke="#cbd5e1"/><text x="700.0" y="541" text-anchor="middle" font-family="Inter,Arial,sans-serif" font-size="18" fill="#0f172a">vendor</text><line x1="700.0" y1="555" x2="700.0" y2="587" stroke="#94a3b8" stroke-width="2" marker-end="url(#a)"/><rect x="565.0" y="595" width="270" height="56" rx="14" fill="#fff" stroke="#cbd5e1"/><text x="700.0" y="631" text-anchor="middle" font-family="Inter,Arial,sans-serif" font-size="18" fill="#0f172a">product</text><line x1="700.0" y1="645" x2="700.0" y2="677" stroke="#94a3b8" stroke-width="2" marker-end="url(#a)"/><rect x="565.0" y="685" width="270" height="56" rx="14" fill="#fff" stroke="#cbd5e1"/><text x="700.0" y="721" text-anchor="middle" font-family="Inter,Arial,sans-serif" font-size="18" fill="#0f172a">odm</text><line x1="700.0" y1="162" x2="1166.6666666666667" y2="218" stroke="#4f46e5" stroke-width="3" marker-end="url(#a)"/><rect x="1016.6666666666667" y="220" width="300" height="64" rx="16" fill="#e0e7ff" stroke="#818cf8"/><text x="1166.6666666666667" y="260" text-anchor="middle" font-family="Inter,Arial,sans-serif" font-size="22" font-weight="700" fill="#1e1b4b">Data Partitions</text><line x1="1166.6666666666667" y1="285" x2="1166.6666666666667" y2="317" stroke="#94a3b8" stroke-width="2" marker-end="url(#a)"/><rect x="1031.6666666666667" y="325" width="270" height="56" rx="14" fill="#fff" stroke="#cbd5e1"/><text x="1166.6666666666667" y="361" text-anchor="middle" font-family="Inter,Arial,sans-serif" font-size="18" fill="#0f172a">userdata</text><line x1="1166.6666666666667" y1="375" x2="1166.6666666666667" y2="407" stroke="#94a3b8" stroke-width="2" marker-end="url(#a)"/><rect x="1031.6666666666667" y="415" width="270" height="56" rx="14" fill="#fff" stroke="#cbd5e1"/><text x="1166.6666666666667" y="451" text-anchor="middle" font-family="Inter,Arial,sans-serif" font-size="18" fill="#0f172a">metadata</text><line x1="1166.6666666666667" y1="465" x2="1166.6666666666667" y2="497" stroke="#94a3b8" stroke-width="2" marker-end="url(#a)"/><rect x="1031.6666666666667" y="505" width="270" height="56" rx="14" fill="#fff" stroke="#cbd5e1"/><text x="1166.6666666666667" y="541" text-anchor="middle" font-family="Inter,Arial,sans-serif" font-size="18" fill="#0f172a">cache (optional)</text></svg>