<svg xmlns="http://www.w3.org/2000/svg" width="1400" height="520" viewBox="0 0 1400 520">
<defs><marker id="a" markerWidth="10" markerHeight="10" refX="6" refY="3" orient="auto"><path d="M0,0 L0,6 L7,3 z" fill="#4f46e5"/></marker></defs>
<rect width="100%" height="100%" fill="#f8fafc"/>
<text x="700.0" y="52" text-anchor="middle" font-family="Inter,Arial,sans-serif" font-size="34" font-weight="700" fill="#0f172a">OEM Application Inventory</text>
<rect x="510.0" y="90" width="380" height="72" rx="18" fill="#312e81"/>
<text x="700.0" y="135" text-anchor="middle" font-family="Inter,Arial,sans-serif" font-size="25" font-weight="700" fill="#fff">OEM Firmware</text>
<line x1="700.0" y1="162" x2="175.0" y2="218" stroke="#4f46e5" stroke-width="3" marker-end="url(#a)"/><rect x="25.0" y="220" width="300" height="64" rx="16" fill="#e0e7ff" stroke="#818cf8"/><text x="175.0" y="260" text-anchor="middle" font-family="Inter,Arial,sans-serif" font-size="22" font-weight="700" fill="#1e1b4b">User Interface</text><line x1="175.0" y1="285" x2="175.0" y2="317" stroke="#94a3b8" stroke-width="2" marker-end="url(#a)"/><rect x="40.0" y="325" width="270" height="56" rx="14" fill="#fff" stroke="#cbd5e1"/><text x="175.0" y="361" text-anchor="middle" font-family="Inter,Arial,sans-serif" font-size="18" fill="#0f172a">OEM Launcher</text><line x1="175.0" y1="375" x2="175.0" y2="407" stroke="#94a3b8" stroke-width="2" marker-end="url(#a)"/><rect x="40.0" y="415" width="270" height="56" rx="14" fill="#fff" stroke="#cbd5e1"/><text x="175.0" y="451" text-anchor="middle" font-family="Inter,Arial,sans-serif" font-size="18" fill="#0f172a">Settings Integration</text><line x1="700.0" y1="162" x2="525.0" y2="218" stroke="#4f46e5" stroke-width="3" marker-end="url(#a)"/><rect x="375.0" y="220" width="300" height="64" rx="16" fill="#e0e7ff" stroke="#818cf8"/><text x="525.0" y="260" text-anchor="middle" font-family="Inter,Arial,sans-serif" font-size="22" font-weight="700" fill="#1e1b4b">Maintenance</text><line x1="525.0" y1="285" x2="525.0" y2="317" stroke="#94a3b8" stroke-width="2" marker-end="url(#a)"/><rect x="390.0" y="325" width="270" height="56" rx="14" fill="#fff" stroke="#cbd5e1"/><text x="525.0" y="361" text-anchor="middle" font-family="Inter,Arial,sans-serif" font-size="18" fill="#0f172a">TXCZ OTA</text><line x1="525.0" y1="375" x2="525.0" y2="407" stroke="#94a3b8" stroke-width="2" marker-end="url(#a)"/><rect x="390.0" y="415" width="270" height="56" rx="14" fill="#fff" stroke="#cbd5e1"/><text x="525.0" y="451" text-anchor="middle" font-family="Inter,Arial,sans-serif" font-size="18" fill="#0f172a">Factory Test Apps</text><line x1="700.0" y1="162" x2="875.0" y2="218" stroke="#4f46e5" stroke-width="3" marker-end="url(#a)"/><rect x="725.0" y="220" width="300" height="64" rx="16" fill="#e0e7ff" stroke="#818cf8"/><text x="875.0" y="260" text-anchor="middle" font-family="Inter,Arial,sans-serif" font-size="22" font-weight="700" fill="#1e1b4b">Connectivity</text><line x1="875.0" y1="285" x2="875.0" y2="317" stroke="#94a3b8" stroke-width="2" marker-end="url(#a)"/><rect x="740.0" y="325" width="270" height="56" rx="14" fill="#fff" stroke="#cbd5e1"/><text x="875.0" y="361" text-anchor="middle" font-family="Inter,Arial,sans-serif" font-size="18" fill="#0f172a">QuickShare</text><line x1="875.0" y1="375" x2="875.0" y2="407" stroke="#94a3b8" stroke-width="2" marker-end="url(#a)"/><rect x="740.0" y="415" width="270" height="56" rx="14" fill="#fff" stroke="#cbd5e1"/><text x="875.0" y="451" text-anchor="middle" font-family="Inter,Arial,sans-serif" font-size="18" fill="#0f172a">USBDisplay</text><line x1="700.0" y1="162" x2="1225.0" y2="218" stroke="#4f46e5" stroke-width="3" marker-end="url(#a)"/><rect x="1075.0" y="220" width="300" height="64" rx="16" fill="#e0e7ff" stroke="#818cf8"/><text x="1225.0" y="260" text-anchor="middle" font-family="Inter,Arial,sans-serif" font-size="22" font-weight="700" fill="#1e1b4b">Hardware Features</text><line x1="1225.0" y1="285" x2="1225.0" y2="317" stroke="#94a3b8" stroke-width="2" marker-end="url(#a)"/><rect x="1090.0" y="325" width="270" height="56" rx="14" fill="#fff" stroke="#cbd5e1"/><text x="1225.0" y="361" text-anchor="middle" font-family="Inter,Arial,sans-serif" font-size="18" fill="#0f172a">Keystone</text><line x1="1225.0" y1="375" x2="1225.0" y2="407" stroke="#94a3b8" stroke-width="2" marker-end="url(#a)"/><rect x="1090.0" y="415" width="270" height="56" rx="14" fill="#fff" stroke="#cbd5e1"/><text x="1225.0" y="451" text-anchor="middle" font-family="Inter,Arial,sans-serif" font-size="18" fill="#0f172a">Autofocus</text></svg>